#N canvas 0 50 800 600 12;
#X obj 50 50 osc~ 440;
#X obj 50 100 *~ 0.1;
#X obj 50 150 dac~;
#X text 50 200 This patch has broken connections;
#X connect 0 0 1 0;
#X connect 1 0 2 0;
#X connect 1 0 2 1;
#X connect 0 5 1 0;
#X connect 0 0 1 8;
#X connect 0 0 9 0;
#X connect 0 0 1 0;
