#N canvas 0 50 800 600 12;
#X obj 50 30 loadbang;
#X obj 50 70 metro 500;
#X obj 50 110 random 100;
#X obj 50 150 mtof;
#X obj 50 190 osc~ 440;
#X obj 200 190 noise~;
#X obj 200 230 lop~ 1000;
#X obj 50 230 *~ 0.3;
#X obj 200 270 *~ 0.2;
#X obj 125 310 +~;
#N canvas 0 0 450 300 reverb 0;
#X obj 50 50 inlet~;
#X obj 50 100 delwrite~ del1 500;
#X obj 50 150 delread~ del1 200;
#X obj 50 200 *~ 0.4;
#X obj 50 250 +~;
#X obj 50 300 outlet~;
#X connect 0 0 1 0;
#X connect 0 0 4 0;
#X connect 2 0 3 0;
#X connect 3 0 4 1;
#X connect 4 0 5 0;
#X restore 125 350 pd reverb;
#X obj 125 400 dac~;
#X text 300 30 Complex patch: control + audio + subpatch;
#X connect 0 0 1 0;
#X connect 1 0 2 0;
#X connect 2 0 3 0;
#X connect 3 0 4 0;
#X connect 4 0 7 0;
#X connect 5 0 6 0;
#X connect 6 0 8 0;
#X connect 7 0 9 0;
#X connect 8 0 9 1;
#X connect 9 0 10 0;
#X connect 10 0 11 0;
#X connect 10 0 11 1;
